<?xml version="1.0" encoding="iso-8859-1"?>
<!-- Generator: Adobe Illustrator 19.0.0, SVG Export Plug-In . SVG Version: 6.00 Build 0)  -->
<svg version="1.1" id="Layer_1" xmlns="http://www.w3.org/2000/svg" xmlns:xlink="http://www.w3.org/1999/xlink" x="0px" y="0px"
	 viewBox="0 0 496.2 496.2" style="enable-background:new 0 0 496.2 496.2;" xml:space="preserve">
<path style="fill:#EA4949;" d="M496.2,248.1C496.2,111.1,385.1,0,248.1,0S0,111.1,0,248.1s111.1,248.1,248.1,248.1
	S496.2,385.1,496.2,248.1z"/>
<g>
	<path style="fill:#0F0F0F;" d="M248.1,427.7c-99,0-179.6-80.6-179.6-179.6S149.1,68.5,248.1,68.5s179.6,80.6,179.6,179.6
		S347.1,427.7,248.1,427.7z M248.1,74.5c-95.7,0-173.6,77.9-173.6,173.6s77.9,173.6,173.6,173.6s173.6-77.9,173.6-173.6
		S343.8,74.5,248.1,74.5z"/>
	<rect x="246.1" y="68.8" style="fill:#0F0F0F;" width="4" height="358.7"/>
	<rect x="68.8" y="246.1" style="fill:#0F0F0F;" width="358.7" height="4"/>
	<rect x="243.1" y="378.8" style="fill:#0F0F0F;" width="10" height="48.7"/>
	<rect x="68.8" y="243.1" style="fill:#0F0F0F;" width="33.2" height="10"/>
	<rect x="243.1" y="68.8" style="fill:#0F0F0F;" width="10" height="33.2"/>
	<rect x="394.3" y="243.1" style="fill:#0F0F0F;" width="33.2" height="10"/>
	<rect x="235.8" y="121.8" style="fill:#0F0F0F;" width="24.7" height="4"/>
	<rect x="235.8" y="152.8" style="fill:#0F0F0F;" width="24.7" height="4"/>
	<rect x="235.8" y="183.8" style="fill:#0F0F0F;" width="24.7" height="4"/>
	<rect x="235.8" y="214.8" style="fill:#0F0F0F;" width="24.7" height="4"/>
	<rect x="235.8" y="276.8" style="fill:#0F0F0F;" width="24.7" height="4"/>
	<rect x="235.8" y="307.8" style="fill:#0F0F0F;" width="24.7" height="4"/>
	<rect x="235.8" y="338.8" style="fill:#0F0F0F;" width="24.7" height="4"/>
	<rect x="235.8" y="369.8" style="fill:#0F0F0F;" width="24.7" height="4"/>
	<rect x="370.1" y="235.5" style="fill:#0F0F0F;" width="4" height="24.7"/>
	<rect x="339.1" y="235.5" style="fill:#0F0F0F;" width="4" height="24.7"/>
	<rect x="308.1" y="235.5" style="fill:#0F0F0F;" width="4" height="24.7"/>
	<rect x="277.1" y="235.5" style="fill:#0F0F0F;" width="4" height="24.7"/>
	<rect x="215.1" y="235.5" style="fill:#0F0F0F;" width="4" height="24.7"/>
	<rect x="184.1" y="235.5" style="fill:#0F0F0F;" width="4" height="24.7"/>
	<rect x="153.1" y="235.5" style="fill:#0F0F0F;" width="4" height="24.7"/>
	<rect x="122.1" y="235.5" style="fill:#0F0F0F;" width="4" height="24.7"/>
</g>
<g>
</g>
<g>
</g>
<g>
</g>
<g>
</g>
<g>
</g>
<g>
</g>
<g>
</g>
<g>
</g>
<g>
</g>
<g>
</g>
<g>
</g>
<g>
</g>
<g>
</g>
<g>
</g>
<g>
</g>
</svg>
